# xmcd
#
# Track frame offsets: 
#        182
#        13237
#        23480
#        35142
#        45065
#        57462
#        67850
#        81947
#        94572
#        105475
#        118490
#        127652
#
# Disc length: 1847 seconds
#
# Revision: 3
# Processed by: cddbd v1.5.1PL2 Copyright (c) Steve Scherf et al.
# Submitted via: ExactAudioCopy v0.90b4
#
DISCID=8f07350c
DTITLE=Jim Reeves - Distant Drums (DCC)
DYEAR=1966
DGENRE=Country
TTITLE0=Distant Drums
TTITLE1=Is It Really Over
TTITLE2=I Missed Me
TTITLE3=Snow Flake
TTITLE4=A Letter To My Heart
TTITLE5=Losing Your Love
TTITLE6=This Is It
TTITLE7=Not Until The Next Time
TTITLE8=Good Morning Self
TTITLE9=Where Does A Broken Heart Go
TTITLE10=Overnight
TTITLE11=The Gods Were Angry With Me
EXTD=''Distant Drums'' Originally Released 1966\n''Distant Drums'' DCC
EXTD=CD Edition Released February 10, 1998\n''Up Through The Years and 
EXTD=Distant Drums'' Compilation Released July 20, 2004\n\nAMG EXPERT 
EXTD=REVIEW: Distant Drums produced several hit singles for Jim Reeves
EXTD=, including the title track, "Is It Really Over?," "This Is It," 
EXTD="Losing Your Love," "I Missed Me," and "Overnight." -- Steve Huey
EXTD=\n\nAMAZON.COM CUSTOMER REVIEW\nA classic, masterfully produced b
EXTD=y Chet Atkins, August 26, 2003\nReviewer: John D Uponen (Kenai, A
EXTD=K United States]\nI can only listen to this album ocassionally be
EXTD=cause it's full of such heart felt emotion that it needs to be di
EXTD=gested in small doses. However, when it's time to listen to "Dist
EXTD=ant Drums", this album has an unparalleled healing power. Jim Ree
EXTD=ves' voice defines the term "velvety". This is a must for anyone 
EXTD=prone to depression. Get "Distant Drums" and throw out your Proza
EXTD=c!\n\nAMAZON.COM CUSTOMER REVIEW\nJim Reeves at his best, Septemb
EXTD=er 14, 2001\nReviewer: Bradley Olson (Bemidji, MN United States]\n
EXTD=This album originally came out on RCA in 1966, compiled from song
EXTD=s recorded from 1957-1964 and 1964 was the year he died. Some of 
EXTD=the biggest hits on here include title song, "Is It Really Over" 
EXTD=and "I Missed Me," "Snow Flake." Other classics on the album incl
EXTD=ude "Overnight," "This Is It," and "I Missed Me." It is definitel
EXTD=y worth buying if you are looking for more Jim Reeves music besid
EXTD=es a hits compilation. It is definitely a classic, of course, the
EXTD=one and only Chet Atkins produced it and is a must have for Jim'
EXTD=s fans.\n\nAMAZON.COM CUSTOMER REVIEW\njim reeves number one song
EXTD=in 1966 was distant drums. it kno, September 25, 1999\nReviewer:
EXTD=pdolsen@webtv.net (usa]\nThe number one song in 1966 was Distant
EXTD=Drums, an overdubbed demo recording that Jim recorded as a demo 
EXTD=in 1961 that chet atkins said wasn't the right time to release th
EXTD=at song because of the Vietnam war.  The songwriter was Cindy Wal
EXTD=ker and when she went to RCA's studio with Mary Reeves and first 
EXTD=heard Distant Drums she was totally shocked to hear an overdubbed
EXTD=version.  Cindy wrote songs especially for Jim Reeves as Jim was
EXTD=her and the worlds favorite singer.  Enjoy the most beautiful vo
EXTD=ice God ever gave to a human being.  This song knocked the Beatle
EXTD=s off the top of the charts in Britain and Jim forever will be re
EXTD=membered as the man who beat the Beatles.\n\nAMAZON.COM CUSTOMER 
EXTD=REVIEW\nexcellent record, now a better CD, August 7, 1999\nReview
EXTD=er: A music fan\nRemembering playing this album on my college rad
EXTD=io station, now it brings back what country music was all about i
EXTD=n the 1960's. This is the must to have album of Jim Reeves.\n\nAM
EXTD=AZON.COM CUSTOMER REVIEW\nof the greatest country singers ever!!!
EXTD=, March 17, 1999\nReviewer: A music fan\nThis album which I liste
EXTD=ned to when I was young, and now that it is on CD it is even bett
EXTD=er. Jim Reeves breadth and range is shown on this album from the 
EXTD=tear jerking Vietnam war inspired Distant Drums to the jumping en
EXTD=ergetic love song of Snowflake. You will not be disappointed with
EXTD=this album. Jim Reeves, a man who died to young, but still inspi
EXTD=res us today with his velvet voice.\n\nHalf.com N/A
EXTT0=
EXTT1=
EXTT2=
EXTT3=
EXTT4=
EXTT5=
EXTT6=
EXTT7=
EXTT8=
EXTT9=
EXTT10=
EXTT11=
PLAYORDER=
